# xmcd CD database file
# Copyright (C) 1997 Ti Kan
#
# Track frame offsets:
#  150
#  16242
#  34200
#  53932
#  72307
#
# Disc length: 1277 seconds
#
# Revision: 1
# Processed by: cddbd v1.4b41PL1 Copyright (c) Steve Scherf et al.
# Submitted via: CDWizzard Release:4.32
#
DISCID=3e04fb05
DTITLE=Backstreet Boys - Get Down (You're the one for me)
DYEAR=1900
DGENRE=
TTITLE0=Lp (edit) No Rap
TTITLE1=DEZIGN Radio 1
TTITLE2=CL Vocal Journey Radio Edit
TTITLE3=Markus Plastik Vocal Radio Edit
TTITLE4=DEZIGN Dub Radio Edit
EXTD=
EXTT0=
EXTT1=
EXTT2=
EXTT3=
EXTT4=
PLAYORDER=
